<svg width="96" height="96" viewBox="0 0 96 96" fill="none" xmlns="http://www.w3.org/2000/svg">
    <g clip-path="url(#rfa5mtr5ga)">
        <circle cx="65" cy="34" fill="#EBEBEB" r="29"/>
        <g filter="url(#71dwi66udb)">
            <circle cx="48" cy="48" r="20" fill="#9BB7F0"/>
        </g>
        <circle cx="19" cy="15" r="3" fill="#F33D5E"/>
        <circle cx="78.75" cy="77.25" r="2.25" fill="#F33D5E"/>
        <circle cx="12.375" cy="70.125" r="1.125" fill="#F33D5E"/>
        <circle cx="48" cy="48" r="36.75" stroke="#132853" stroke-linecap="round" stroke-linejoin="round"/>
        <circle cx="48" cy="48" r="27" stroke="#132853" stroke-linecap="round" stroke-linejoin="round"/>
        <path d="M80.25 48a32.25 32.25 0 0 0-55.054-22.804M22.753 28.199a32.249 32.249 0 0 0-6.426 15.793M15.75 48a32.25 32.25 0 0 0 55.054 22.804" stroke="#132853" stroke-width="2" stroke-linecap="round" stroke-linejoin="round"/>
        <path d="M57 40.75a1 1 0 1 0 0-2v2zm-8.188-1v-1a1 1 0 0 0-.989.852l.99.148zM47.7 47.166l-.99-.148a1 1 0 0 0 .99 1.148v-1zm-.694 8.029a1 1 0 0 0-1.953-.428l1.953.428zM57 38.75h-8.188v2H57v-2zm-9.177.852-1.113 7.416 1.978.297 1.113-7.416-1.978-.297zm-.124 8.564h3.848v-2h-3.848v2zm3.848 7.084h-4.554v2h4.554v-2zm-4.554 0 .012-.055-1.953-.428-.013.054 1.954.429zm0 0-1.954-.428a2 2 0 0 0 1.954 2.428v-2zm8.037-2.901a3.542 3.542 0 0 1-3.483 2.901v2a5.542 5.542 0 0 0 5.45-4.54l-1.967-.361zm-3.483-4.183a3.542 3.542 0 0 1 3.483 4.183l1.967.361c.626-3.405-1.988-6.544-5.45-6.544v2z" fill="#132853"/>
        <path d="m38.25 44.275 5.25-4.525L41.013 57" stroke="#132853" stroke-width="2" stroke-linecap="round" stroke-linejoin="round"/>
        <circle cx="78" cy="60" r="12" fill="#fff" stroke="#132853" stroke-linejoin="round"/>
        <path d="m72 60 4.5 4.5 7.125-8.25" stroke="#132853" stroke-width="2" stroke-linecap="round" stroke-linejoin="round"/>
    </g>
    <defs>
        <clipPath id="rfa5mtr5ga">
            <path fill="#fff" d="M0 0h96v96H0z"/>
        </clipPath>
        <filter id="71dwi66udb" x="-4" y="-4" width="104" height="104" filterUnits="userSpaceOnUse" color-interpolation-filters="sRGB">
            <feFlood flood-opacity="0" result="BackgroundImageFix"/>
            <feBlend in="SourceGraphic" in2="BackgroundImageFix" result="shape"/>
            <feGaussianBlur stdDeviation="16" result="effect1_foregroundBlur_733_383"/>
        </filter>
    </defs>
</svg>
