<svg width="163" height="162" viewBox="0 0 163 162" fill="none" xmlns="http://www.w3.org/2000/svg">
    <path fill-rule="evenodd" clip-rule="evenodd" d="M80.587 1.157c10.449-.394 21.089-2.7 31.021.57 10.194 3.356 18.298 10.872 26.102 18.238 8.188 7.728 18.616 15.058 20.867 26.089 2.277 11.157-8.196 21.231-8.891 32.597-.734 12 10.23 24.666 4.733 35.359-5.405 10.513-21.15 9.817-31.177 16.08-9.313 5.816-15.851 15.445-26.003 19.63-10.852 4.474-23.483 9.525-34.427 5.28-11.27-4.37-13.664-19.827-22.97-27.539-8.601-7.129-22.835-6.514-29.198-15.697-6.306-9.101-2.748-21.608-4.252-32.577-1.548-11.287-8.548-22.7-4.805-33.461C5.338 34.94 17.452 29.783 26.149 22.382 33.994 15.707 40.992 7.77 50.59 4.027c9.462-3.69 19.85-2.487 29.998-2.87z" fill="#EBEBEB"/>
    <path fill-rule="evenodd" clip-rule="evenodd" d="m69.526 53.96-7.612 41.922a3 3 0 0 0 2.952 3.536H99.68c3.719 0 7.02-2.381 8.195-5.91l9.452-28.404c1.568-5.75-2.761-11.419-8.722-11.419H87.11a.51.51 0 0 1-.43-.78l2.794-4.418c4.214-6.661 1.145-15.51-6.287-18.134a3.545 3.545 0 0 0-4.438 1.946l-9.062 21.13c-.074.17-.127.349-.16.531zM47.82 55.796l-5.506 37.626a2.468 2.468 0 0 0 2.441 2.825h12.897a2.468 2.468 0 0 0 2.424-2.008l7.143-37.626a2.468 2.468 0 0 0-2.424-2.927H50.26a2.468 2.468 0 0 0-2.441 2.11z" fill="#20438A"/>
    <g filter="url(#d44d8u8rga)">
        <circle cx="60.575" cy="95.625" r="6.975" fill="#fff"/>
    </g>
    <path d="m63.499 92.538-6.341 6.34" stroke="#F33D5E" stroke-width=".9" stroke-linecap="round" stroke-linejoin="round"/>
    <circle cx="58.749" cy="93.134" stroke="#F33D5E" stroke-width=".9" stroke-linecap="round" stroke-linejoin="round" r="1.495"/>
    <circle cx="62.402" cy="98.116" stroke="#F33D5E" stroke-width=".9" stroke-linecap="round" stroke-linejoin="round" r="1.495"/>
    <rect x="76.101" y="72" width="42.261" height="42.261" rx="21.131" fill="#F33D5E"/>
    <path d="M86 103.5h22.966" stroke="#fff" stroke-width=".675" stroke-linecap="round" stroke-linejoin="round"/>
    <path d="M87.093 88.805h20.79c.605 0 .854-.775.363-1.127l-9.31-6.684a2.176 2.176 0 0 0-2.506-.022l-9.69 6.7c-.502.346-.256 1.133.353 1.133z" fill="#fff"/>
    <path d="M93.65 90.233c0-.129.105-.233.234-.233h4.033c.129 0 .233.104.233.233v7.634a.233.233 0 0 1-.233.233h-4.033a.233.233 0 0 1-.234-.233v-7.634z" stroke="#fff" stroke-width=".675" stroke-linecap="round" stroke-linejoin="round"/>
    <path fill="#fff" d="M87.351 89.55h4.95v13.05h-4.95zM93.201 99.45h5.4v3.15h-5.4zM99.5 89.55h8.1v13.05h-8.1z"/>
    <g filter="url(#zgjo8qsufb)">
        <circle cx="47.3" cy="58.5" r="9.45" fill="#fff"/>
    </g>
    <path d="m51.262 54.317-8.592 8.591" stroke="#F33D5E" stroke-width=".9" stroke-linecap="round" stroke-linejoin="round"/>
    <circle cx="44.825" cy="55.125" r="2.025" stroke="#F33D5E" stroke-width=".9" stroke-linecap="round" stroke-linejoin="round"/>
    <circle cx="49.775" cy="61.875" r="2.025" stroke="#F33D5E" stroke-width=".9" stroke-linecap="round" stroke-linejoin="round"/>
    <defs>
        <filter id="d44d8u8rga" x="47.35" y="83.65" width="26.45" height="26.45" filterUnits="userSpaceOnUse" color-interpolation-filters="sRGB">
            <feFlood flood-opacity="0" result="BackgroundImageFix"/>
            <feColorMatrix in="SourceAlpha" values="0 0 0 0 0 0 0 0 0 0 0 0 0 0 0 0 0 0 127 0" result="hardAlpha"/>
            <feOffset dy="1.25"/>
            <feGaussianBlur stdDeviation="3.125"/>
            <feComposite in2="hardAlpha" operator="out"/>
            <feColorMatrix values="0 0 0 0 0 0 0 0 0 0 0 0 0 0 0 0 0 0 0.25 0"/>
            <feBlend in2="BackgroundImageFix" result="effect1_dropShadow_732_4977"/>
            <feBlend in="SourceGraphic" in2="effect1_dropShadow_732_4977" result="shape"/>
        </filter>
        <filter id="zgjo8qsufb" x="28.85" y="41.85" width="36.9" height="36.9" filterUnits="userSpaceOnUse" color-interpolation-filters="sRGB">
            <feFlood flood-opacity="0" result="BackgroundImageFix"/>
            <feColorMatrix in="SourceAlpha" values="0 0 0 0 0 0 0 0 0 0 0 0 0 0 0 0 0 0 127 0" result="hardAlpha"/>
            <feOffset dy="1.8"/>
            <feGaussianBlur stdDeviation="4.5"/>
            <feComposite in2="hardAlpha" operator="out"/>
            <feColorMatrix values="0 0 0 0 0 0 0 0 0 0 0 0 0 0 0 0 0 0 0.25 0"/>
            <feBlend in2="BackgroundImageFix" result="effect1_dropShadow_732_4977"/>
            <feBlend in="SourceGraphic" in2="effect1_dropShadow_732_4977" result="shape"/>
        </filter>
    </defs>
</svg>
