<svg width="24" height="24" viewBox="0 0 24 24" fill="none" xmlns="http://www.w3.org/2000/svg">
    <mask id="l7dru1h11a" fill="#fff">
        <path d="M6.662 2H3.605A2.105 2.105 0 0 0 1.5 4.105C1.5 13.988 9.512 22 19.395 22a2.105 2.105 0 0 0 2.105-2.105v-3.057c0-.909-.553-1.726-1.397-2.063l-2.928-1.172a2.222 2.222 0 0 0-2.248.356l-.757.63a2.222 2.222 0 0 1-2.994-.135l-2.13-2.13A2.222 2.222 0 0 1 8.91 9.33l.63-.757c.523-.627.66-1.49.357-2.248L8.725 3.397A2.222 2.222 0 0 0 6.662 2z"/>
    </mask>
    <path d="m8.725 3.397-.928.371.928-.371zm1.172 2.928.928-.371-.928.371zM9.54 8.573l.768.64-.768-.64zm-.63.757.768.64-.769-.64zm.135 2.994-.707.707.707-.707zm2.13 2.13.707-.707-.707.707zm2.994.136-.64-.768.64.768zm.757-.63.64.767-.64-.768zm2.248-.357-.372.929.372-.929zm2.928 1.172.371-.929-.37.929zM3.605 3h3.057V1H3.605v2zm4.192.768 1.171 2.929 1.857-.743-1.171-2.928-1.857.742zm.975 4.165-.63.757L9.68 9.97l.63-.756-1.537-1.28zm-.433 5.098 2.13 2.13 1.414-1.414-2.13-2.13L8.34 13.03zm6.471 2.327.757-.63-1.28-1.537-.757.63 1.28 1.537zm1.993-.826 2.929 1.171.742-1.857-2.928-1.171-.743 1.857zm3.697 2.306v3.057h2v-3.057h-2zM19.395 21C10.064 21 2.5 13.436 2.5 4.105h-2C.5 14.54 8.96 23 19.395 23v-2zm1.105-1.105c0 .61-.495 1.105-1.105 1.105v2a3.105 3.105 0 0 0 3.105-3.105h-2zm-.768-4.192c.464.186.768.635.768 1.135h2a3.222 3.222 0 0 0-2.026-2.992l-.742 1.857zm-4.165-.976c.345-.287.82-.362 1.236-.195l.743-1.857a3.222 3.222 0 0 0-3.26.516l1.28 1.536zm-5.098.434a3.222 3.222 0 0 0 4.341.197l-1.28-1.537c-.486.405-1.2.373-1.647-.074L10.47 15.16zM8.142 8.69a3.222 3.222 0 0 0 .197 4.341l1.414-1.414a1.222 1.222 0 0 1-.075-1.647L8.143 8.69zm.826-1.993c.167.417.092.891-.196 1.236l1.537 1.28c.758-.909.956-2.16.516-3.259l-1.857.743zM6.662 3c.5 0 .95.304 1.135.768l1.857-.742A3.222 3.222 0 0 0 6.662 1v2zM3.605 1A3.105 3.105 0 0 0 .5 4.105h2C2.5 3.495 2.995 3 3.605 3V1z" fill="#132853" mask="url(#l7dru1h11a)"/>
</svg>
