<svg width="96" height="96" viewBox="0 0 96 96" fill="none" xmlns="http://www.w3.org/2000/svg">
    <circle opacity=".64" cx="65" cy="34" r="29" fill="#EBEBEB"/>
    <g filter="url(#p1494ewpma)">
        <circle cx="48" cy="48" r="20" fill="#9BB7F0"/>
    </g>
    <path d="M88 48.542H37.5M37 78 13 52.542v-9" stroke="#132853" stroke-width="2" stroke-linecap="round" stroke-linejoin="round"/>
    <path d="M37.5 68H88M37 68 12.5 42.5M37.5 58.5 12.5 33M37.5 59H88" stroke="#132853" stroke-linecap="round" stroke-linejoin="round"/>
    <path d="M88 78H37V49h51v29z" stroke="#132853" stroke-width="2" stroke-linecap="round" stroke-linejoin="round"/>
    <path d="M37.5 48.542 13 24m0 0v28.5M13 24h50.82l24.305 25.125" stroke="#132853" stroke-width="2" stroke-linejoin="round"/>
    <path d="M27.043 24.224c1.077 2.153 3.18 5.48 6.007 8.508 2.823 3.022 6.413 5.793 10.473 6.748l.229-.973c-3.784-.89-7.21-3.501-9.97-6.458-2.757-2.95-4.807-6.197-5.844-8.273l-.895.448zm16.48 15.256c7.644 1.799 9.823 6.704 9.996 8.782l.997-.083c-.212-2.535-2.723-7.78-10.764-9.672l-.23.973zm13.301 8.74c0-1.609-.419-4.14-1.67-6.572-1.256-2.442-3.362-4.804-6.735-6.009l-.337.942c3.085 1.102 5.017 3.257 6.183 5.525 1.17 2.276 1.559 4.648 1.559 6.114h1zm-8.405-12.58c-3.117-1.114-5.642-3.302-7.538-5.614-1.896-2.311-3.138-4.714-3.696-6.202l-.936.352c.595 1.587 1.891 4.086 3.859 6.485 1.967 2.398 4.632 4.726 7.974 5.92l.337-.942zM54.5 33.5l.277-.416-.277.416zm6.343 14.852c1.202-4.408-.187-11.36-6.066-15.268l-.554.832c5.473 3.639 6.76 10.123 5.655 14.173l.965.263zm-6.066-15.268c-5.097-3.389-6.666-7.48-7.83-9.808l-.894.448c1.143 2.286 2.816 6.633 8.17 10.192l.554-.832zM67.858 37.264l-.457.203.457-.203zm-.092 11.654c.733-2.933 2.946-6.462.548-11.858l-.913.407c2.215 4.984.2 7.991-.605 11.209l.97.242zm.548-11.858c-.43-.97-1.253-2.008-2.164-3.057-.935-1.076-1.956-2.157-2.9-3.301-.937-1.135-1.742-2.269-2.21-3.38-.466-1.105-.585-2.15-.211-3.146l-.936-.352c-.492 1.31-.305 2.63.225 3.886.526 1.248 1.406 2.472 2.36 3.629.948 1.148 2.026 2.294 2.917 3.32.914 1.052 1.642 1.99 2.006 2.808l.913-.407zM44.214 44.76l.14-.56-.14.56zm-3.463 3.403c-.092-.922.012-1.827.445-2.387.377-.488 1.152-.888 2.878-.456l.28-1.12c-1.965-.49-3.304-.122-4.071.87-.711.921-.78 2.207-.68 3.208l1.148-.115zm3.323-2.843c.206.051.533.198.922.433.38.23.784.525 1.141.843.361.322.652.648.828.937.187.308.177.46.162.505l1.094.365c.177-.532-.025-1.065-.27-1.469-.258-.423-.64-.836-1.047-1.199a9.155 9.155 0 0 0-1.31-.968c-.428-.26-.87-.474-1.24-.566l-.28 1.119z" fill="#132853"/>
    <path d="M20.57 24c4.614 5.767 14.532 17.3 17.3 17.3 3.46 0 9.804 0 13.84 6.92M77.66 48.22c.77-3.075 1.616-9.688-1.152-11.533" stroke="#132853" stroke-linejoin="round"/>
    <path d="M70.34 4.88c.253-1.01 1.688-1.01 1.94 0l2.147 8.587a1 1 0 0 0 .728.727l8.586 2.147c1.01.252 1.01 1.687 0 1.94l-8.586 2.146a1 1 0 0 0-.728.728l-2.283 9.135c-.243.97-1.603 1.023-1.92.074l-2.833-8.501a1 1 0 0 0-.632-.633l-8.501-2.833c-.95-.317-.897-1.676.073-1.92l9.135-2.283a1 1 0 0 0 .728-.728l2.147-8.585zM39.645 45.88c.253-1.01 1.688-1.01 1.94 0l1.208 4.83a1 1 0 0 0 .728.728l4.83 1.207c1.01.253 1.01 1.688 0 1.94l-4.83 1.208a1 1 0 0 0-.728.728l-1.345 5.378c-.242.971-1.602 1.023-1.919.074l-1.66-4.98a1 1 0 0 0-.632-.632l-4.98-1.66c-.948-.316-.896-1.676.075-1.918l5.378-1.345a1 1 0 0 0 .728-.728l1.207-4.83zM34.838 18.88c.252-1.01 1.687-1.01 1.94 0l.646 2.584a1 1 0 0 0 .727.728l2.584.646c1.01.252 1.01 1.687 0 1.94l-2.584.646a1 1 0 0 0-.727.727l-.783 3.133c-.243.97-1.603 1.023-1.92.074l-.957-2.874a1 1 0 0 0-.633-.633l-2.873-.957c-.95-.317-.897-1.676.073-1.92l3.133-.782a1 1 0 0 0 .728-.728l.646-2.583z" fill="#fff" stroke="#132853" stroke-linejoin="round"/>
    <circle cx="19" cy="15" r="3" fill="#F33D5E"/>
    <circle cx="23.25" cy="76.5" r="2.25" fill="#F33D5E"/>
    <defs>
        <filter id="p1494ewpma" x="4" y="4" width="88" height="88" filterUnits="userSpaceOnUse" color-interpolation-filters="sRGB">
            <feFlood flood-opacity="0" result="BackgroundImageFix"/>
            <feBlend in="SourceGraphic" in2="BackgroundImageFix" result="shape"/>
            <feGaussianBlur stdDeviation="12" result="effect1_foregroundBlur_762_714"/>
        </filter>
    </defs>
</svg>
