<svg width="64" height="64" viewBox="0 0 64 64" fill="none" xmlns="http://www.w3.org/2000/svg">
<rect x="1" y="63" width="62" height="62" rx="31" transform="rotate(-90 1 63)" stroke="white" stroke-width="2"/>
<mask id="path-2-inside-1_601_20962" fill="white">
<path fill-rule="evenodd" clip-rule="evenodd" d="M39.264 30.9998C36.8745 28.817 34.8116 26.2962 33.1425 23.5143L34.8575 22.4854C36.7804 25.6903 39.2594 28.5267 42.1779 30.8615L42.6247 31.219L43.6008 31.9998L42.6247 32.7807L42.1779 33.1381C39.2594 35.473 36.7804 38.3094 34.8575 41.5143L33.1425 40.4854C34.8116 37.7035 36.8745 35.1827 39.264 32.9998H18V30.9998H39.264Z"/>
</mask>
<path fill-rule="evenodd" clip-rule="evenodd" d="M39.264 30.9998C36.8745 28.817 34.8116 26.2962 33.1425 23.5143L34.8575 22.4854C36.7804 25.6903 39.2594 28.5267 42.1779 30.8615L42.6247 31.219L43.6008 31.9998L42.6247 32.7807L42.1779 33.1381C39.2594 35.473 36.7804 38.3094 34.8575 41.5143L33.1425 40.4854C34.8116 37.7035 36.8745 35.1827 39.264 32.9998H18V30.9998H39.264Z" fill="white"/>
<path d="M39.264 30.9998V31.9998H41.8413L39.9385 30.2615L39.264 30.9998ZM33.1425 23.5143L32.628 22.6569L31.7705 23.1713L32.285 24.0288L33.1425 23.5143ZM34.8575 22.4854L35.715 21.9709L35.2005 21.1134L34.343 21.6279L34.8575 22.4854ZM42.1779 30.8615L41.5532 31.6424L42.1779 30.8615ZM42.6247 31.219L43.2494 30.4381V30.4381L42.6247 31.219ZM43.6008 31.9998L44.2255 32.7807L45.2016 31.9998L44.2255 31.219L43.6008 31.9998ZM42.6247 32.7807L43.2494 33.5616L42.6247 32.7807ZM42.1779 33.1381L41.5532 32.3573L42.1779 33.1381ZM34.8575 41.5143L34.343 42.3718L35.2005 42.8863L35.715 42.0288L34.8575 41.5143ZM33.1425 40.4854L32.285 39.9709L31.7705 40.8283L32.628 41.3428L33.1425 40.4854ZM39.264 32.9998L39.9385 33.7382L41.8413 31.9998H39.264V32.9998ZM18 32.9998H17V33.9998H18V32.9998ZM18 30.9998V29.9998H17V30.9998H18ZM39.9385 30.2615C37.6204 28.144 35.6192 25.6985 34 22.9998L32.285 24.0288C34.004 26.8939 36.1286 29.49 38.5895 31.7382L39.9385 30.2615ZM33.657 24.3718L35.372 23.3428L34.343 21.6279L32.628 22.6569L33.657 24.3718ZM34 22.9998C35.9841 26.3067 38.5419 29.2333 41.5532 31.6424L42.8026 30.0807C39.9769 27.8201 37.5768 25.0739 35.715 21.9709L34 22.9998ZM41.5532 31.6424L42 31.9998L43.2494 30.4381L42.8026 30.0807L41.5532 31.6424ZM42 31.9998L42.9761 32.7807L44.2255 31.219L43.2494 30.4381L42 31.9998ZM42.9761 31.219L42 31.9998L43.2494 33.5616L44.2255 32.7807L42.9761 31.219ZM42 31.9998L41.5532 32.3573L42.8026 33.919L43.2494 33.5616L42 31.9998ZM41.5532 32.3573C38.5419 34.7664 35.9841 37.693 34 40.9998L35.715 42.0288C37.5768 38.9258 39.9769 36.1796 42.8026 33.919L41.5532 32.3573ZM35.372 40.6569L33.657 39.6279L32.628 41.3428L34.343 42.3718L35.372 40.6569ZM34 40.9998C35.6192 38.3012 37.6204 35.8557 39.9385 33.7382L38.5895 32.2615C36.1286 34.5097 34.004 37.1058 32.285 39.9709L34 40.9998ZM39.264 31.9998H18V33.9998H39.264V31.9998ZM19 32.9998V30.9998H17V32.9998H19ZM18 31.9998H39.264V29.9998H18V31.9998Z" fill="white" mask="url(#path-2-inside-1_601_20962)"/>
</svg>
