<svg width="64" height="64" viewBox="0 0 64 64" fill="none" xmlns="http://www.w3.org/2000/svg">
    <rect x="1" y="63" width="62" height="62" rx="31" transform="rotate(-90 1 63)" stroke="#EBEBEB" stroke-width="2"/>
    <mask id="j20oc18hba" fill="#fff">
        <path fill-rule="evenodd" clip-rule="evenodd" d="M39.264 31a33.442 33.442 0 0 1-6.122-7.486l1.715-1.029a31.445 31.445 0 0 0 7.32 8.377l.448.357.976.78-.976.782-.447.357a31.446 31.446 0 0 0-7.32 8.376l-1.715-1.029A33.445 33.445 0 0 1 39.264 33H18v-2h21.264z"/>
    </mask>
    <path fill-rule="evenodd" clip-rule="evenodd" d="M39.264 31a33.442 33.442 0 0 1-6.122-7.486l1.715-1.029a31.445 31.445 0 0 0 7.32 8.377l.448.357.976.78-.976.782-.447.357a31.446 31.446 0 0 0-7.32 8.376l-1.715-1.029A33.445 33.445 0 0 1 39.264 33H18v-2h21.264z" fill="#20438A"/>
    <path d="M39.264 31v1h2.577l-1.903-1.738-.674.738zm-6.122-7.486-.514-.857-.858.514.515.858.858-.515zm1.715-1.029.858-.514-.515-.858-.857.515.514.857zm7.32 8.377-.624.78.625-.78zm.448.357.624-.78-.624.78zm.976.78.624.782.977-.781-.977-.781-.624.78zm-.976.782.624.78-.624-.78zm-.447.357-.625-.78.625.78zm-7.32 8.376-.515.858.857.514.515-.857-.858-.515zm-1.715-1.029-.858-.514-.514.857.857.515.514-.858zM39.264 33l.674.738L41.841 32h-2.577v1zM18 33h-1v1h1v-1zm0-2v-1h-1v1h1zm21.938-.738A32.441 32.441 0 0 1 34 23l-1.715 1.029a34.446 34.446 0 0 0 6.305 7.71l1.348-1.477zm-6.281-5.89 1.715-1.03-1.029-1.714-1.715 1.029 1.029 1.715zM34 23a32.446 32.446 0 0 0 7.553 8.642l1.25-1.561a30.446 30.446 0 0 1-7.088-8.11L34 23zm7.553 8.642L42 32l1.25-1.562-.447-.357-1.25 1.561zM42 32l.976.78 1.25-1.561-.977-.78L42 31.998zm.976-.781-.976.78 1.25 1.563.975-.781-1.249-1.562zm-.976.78-.447.358 1.25 1.562.446-.357L42 32zm-.447.358A32.447 32.447 0 0 0 34 41l1.715 1.029a30.446 30.446 0 0 1 7.088-8.11l-1.25-1.562zm-6.181 8.3-1.715-1.03-1.029 1.716 1.715 1.029 1.029-1.715zM34 41a32.443 32.443 0 0 1 5.938-7.262l-1.349-1.477a34.446 34.446 0 0 0-6.304 7.71L34 41zm5.264-9H18v2h21.264v-2zM19 33v-2h-2v2h2zm-1-1h21.264v-2H18v2z" fill="#20438A" mask="url(#j20oc18hba)"/>
</svg>
