<svg width="97" height="96" viewBox="0 0 97 96" fill="none" xmlns="http://www.w3.org/2000/svg">
    <g clip-path="url(#qmsjidnuqa)">
        <circle cx="48.5" cy="41" r="29" fill="#EBEBEB"/>
        <g filter="url(#sgr4n1qhmb)">
            <circle cx="48.75" cy="48" r="20" fill="#9BB7F0"/>
        </g>
        <circle cx="31.875" cy="22.125" r="1.875" fill="#F33D5E"/>
        <circle cx="81.5" cy="36.5" r="2" fill="#F33D5E"/>
        <circle cx="57.375" cy="73.875" r="1.875" fill="#F33D5E"/>
        <path d="m15 49.5 32.135-24.146a3 3 0 0 1 3.605 0L82.875 49.5M5.25 74.25l21.938-16.5 10.968-8.25M93 74.25l-21.938-16.5-10.968-8.25" stroke="#132853" stroke-width="2" stroke-linecap="round" stroke-linejoin="round"/>
        <path d="M76.061 52.668a.5.5 0 1 0-.622.782l.623-.782zm15.683 2.216a.5.5 0 0 0-.551-.443l-4.473.488a.5.5 0 1 0 .108.994l3.976-.433.434 3.976a.5.5 0 1 0 .994-.108l-.488-4.474zM75.44 53.45l5.9 4.698.623-.782-5.9-4.698-.623.782zm14.654 3.724 1.544-1.922-.78-.627-1.544 1.923.78.626zm-4.044 2.278a6.242 6.242 0 0 0 4.044-2.278l-.78-.626a5.242 5.242 0 0 1-3.396 1.913l.132.991zm-4.71-1.304a6.241 6.241 0 0 0 4.71 1.304l-.132-.991a5.242 5.242 0 0 1-3.955-1.095l-.623.782zM74.716 71.63a.5.5 0 1 0 .65-.76l-.65.76zM59.211 57.252a.5.5 0 0 0-.46.537l.351 4.486a.5.5 0 0 0 .997-.078l-.311-3.988 3.987-.311a.5.5 0 0 0-.078-.997l-4.486.35zM75.366 70.87l-15.791-13.5-.65.76 15.791 13.5.65-.76zM23.575 71.63a.5.5 0 1 1-.65-.76l.65.76zM39.08 57.252a.5.5 0 0 1 .46.537l-.351 4.486a.5.5 0 0 1-.997-.078l.312-3.988-3.988-.311a.5.5 0 0 1 .078-.997l4.486.35zM22.925 70.87l15.791-13.5.65.76-15.791 13.5-.65-.76zM22.171 52.668a.5.5 0 1 1 .623.782l-.623-.782zM6.49 54.884a.5.5 0 0 1 .55-.443l4.474.488a.5.5 0 0 1-.108.994l-3.976-.433-.434 3.976A.5.5 0 1 1 6 59.358l.488-4.474zm16.305-1.434-5.9 4.698-.623-.782 5.9-4.698.623.782zM8.14 57.174l-1.544-1.922.78-.627 1.544 1.923-.78.626zm4.044 2.278a6.241 6.241 0 0 1-4.044-2.278l.78-.626a5.241 5.241 0 0 0 3.396 1.913l-.132.991zm4.71-1.304a6.241 6.241 0 0 1-4.71 1.304l.132-.991a5.242 5.242 0 0 0 3.955-1.095l.623.782zM42.682 55.895a.5.5 0 0 1-.614-.79l.614.79zm6.09-13.124a.5.5 0 0 1 .707 0l3.181 3.182a.5.5 0 1 1-.707.707l-2.828-2.828-2.828 2.828a.5.5 0 0 1-.707-.707l3.181-3.182zm.353 7.479h.5-.5zm7.392 4.827a.5.5 0 1 1-.534.846l.534-.846zm-7.892-4.827v-7.125h1v7.125h-1zm1 0c0-.12-.056-.169-.011-.105.029.04.083.104.17.192.175.174.435.398.764.657a46.99 46.99 0 0 0 2.422 1.75 123.756 123.756 0 0 0 3.527 2.32l.015.01.004.002v.001h.001l-.267.423-.267.423-.001-.001-.004-.003-.016-.01a39.823 39.823 0 0 1-.06-.038l-.227-.145a134.43 134.43 0 0 1-3.27-2.157 47.892 47.892 0 0 1-2.477-1.79 10.13 10.13 0 0 1-.85-.735 2.561 2.561 0 0 1-.282-.324.835.835 0 0 1-.171-.47h1zm-7.557 4.855 6.75-5.25.614.79-6.75 5.25-.614-.79zM31.658 45.121a.5.5 0 0 1-.434-.558l.557-4.465a.5.5 0 1 1 .992.123l-.495 3.97 3.97.495a.5.5 0 0 1-.124.992l-4.466-.557zm8.045-6.074-7.676 5.973-.614-.79 7.676-5.972.614.789zm7.9 1.008a5.616 5.616 0 0 0-7.9-1.008l-.614-.79a6.616 6.616 0 0 1 9.307 1.188l-.793.61zM66.597 45.121a.5.5 0 0 0 .434-.558l-.557-4.465a.5.5 0 1 0-.993.123l.496 3.97-3.97.495a.5.5 0 1 0 .124.992l4.466-.557zm-8.045-6.074 7.676 5.973.614-.79-7.676-5.972-.614.789zm-7.9 1.008a5.616 5.616 0 0 1 7.9-1.008l.614-.79a6.616 6.616 0 0 0-9.307 1.188l.792.61z" fill="#132853"/>
        <path d="m74.25 47.25-7.5 3.375M23.25 48l8.625 2.25" stroke="#132853" stroke-width="2" stroke-linecap="round" stroke-linejoin="round"/>
    </g>
    <defs>
        <clipPath id="qmsjidnuqa">
            <path fill="#fff" transform="translate(.75)" d="M0 0h96v96H0z"/>
        </clipPath>
        <filter id="sgr4n1qhmb" x="-3.25" y="-4" width="104" height="104" filterUnits="userSpaceOnUse" color-interpolation-filters="sRGB">
            <feFlood flood-opacity="0" result="BackgroundImageFix"/>
            <feBlend in="SourceGraphic" in2="BackgroundImageFix" result="shape"/>
            <feGaussianBlur stdDeviation="16" result="effect1_foregroundBlur_733_402"/>
        </filter>
    </defs>
</svg>
