<svg width="96" height="96" viewBox="0 0 96 96" fill="none" xmlns="http://www.w3.org/2000/svg">
    <g clip-path="url(#09q7ubkx0a)">
        <circle cx="47.75" cy="39.5" r="29" fill="#EBEBEB"/>
        <g filter="url(#puwtn7zmhb)">
            <circle cx="48" cy="48" r="20" fill="#9BB7F0"/>
        </g>
        <circle cx="79.5" cy="76.5" r="3" fill="#F33D5E"/>
        <circle cx="33.5" cy="26" fill="#F33D5E" r="2"/>
        <circle cx="69" cy="13.5" r="1.5" fill="#F33D5E"/>
        <path d="M45.112 48.937v11.388m-9.89 6.518V86.25l9.89-3.596v-22.33m-9.89 6.52 4.495-1.574 1.349-3.597 4.046-1.348m-9.89 6.518L6 51.783m29.221 15.06v-10.04m0 0 4.496-1.573 1.349-3.596 4.046-1.349m-9.89 6.519L6 41.294v10.489m39.112 19.03-4.046 1.35-1.349 3.596-4.495 1.573L6 61.372v-9.589M12.743 31.853l-3.147 2.248-.899 4.046L6 41.294M39.717 55.23 8.697 38.147M41.066 51.634 10.046 34.55M45.112 48.937 12.744 31.853M35.221 86.25 6 70.965v-9.592" stroke="#132853" stroke-width="2" stroke-linecap="round" stroke-linejoin="round"/>
        <path d="M50.77 35.833v12.139m9.89 6.518v18.657l-9.89-3.597V47.972m9.89 6.518-4.495-1.573-1.349-3.597-4.046-1.349m9.89 6.52L89.882 39.43M60.66 54.49V43.7m0 0-4.495-1.573-1.349-3.596-4.046-1.349m9.89 6.519 29.222-15.51V39.43M50.77 57.71l4.046 1.35 1.349 3.596 4.495 1.573 29.222-15.96v-8.84M83.138 18.75l3.147 2.248.9 4.046 2.697 3.147M56.165 42.127l31.02-17.083M54.816 38.53l31.02-17.083M50.77 35.833 83.138 18.75M60.66 73.147l29.222-15.285V48.27" stroke="#132853" stroke-linecap="round" stroke-linejoin="round"/>
    </g>
    <defs>
        <clipPath id="09q7ubkx0a">
            <path fill="#fff" d="M0 0h96v96H0z"/>
        </clipPath>
        <filter id="puwtn7zmhb" x="-4" y="-4" width="104" height="104" filterUnits="userSpaceOnUse" color-interpolation-filters="sRGB">
            <feFlood flood-opacity="0" result="BackgroundImageFix"/>
            <feBlend in="SourceGraphic" in2="BackgroundImageFix" result="shape"/>
            <feGaussianBlur stdDeviation="16" result="effect1_foregroundBlur_733_337"/>
        </filter>
    </defs>
</svg>
