<svg width="25" height="24" viewBox="0 0 25 24" fill="none" xmlns="http://www.w3.org/2000/svg">
<path d="M11.6033 1.81699C11.9701 1.07374 13.0299 1.07374 13.3967 1.81699L15.794 6.67446C15.9397 6.9696 16.2213 7.17417 16.547 7.2215L21.9075 8.00043C22.7277 8.11961 23.0552 9.12759 22.4617 9.70612L18.5828 13.4871C18.3471 13.7169 18.2396 14.0479 18.2952 14.3723L19.2109 19.7111C19.351 20.528 18.4936 21.151 17.76 20.7653L12.9653 18.2446C12.674 18.0915 12.326 18.0915 12.0347 18.2446L7.24005 20.7653C6.50642 21.151 5.64899 20.528 5.7891 19.7111L6.70479 14.3723C6.76043 14.0479 6.65288 13.7169 6.41719 13.4871L2.53827 9.70612C1.94476 9.12759 2.27226 8.11961 3.09249 8.00043L8.45302 7.2215C8.77873 7.17417 9.0603 6.9696 9.20596 6.67446L11.6033 1.81699Z" fill="#F33D5E"/>
</svg>
