<svg width="96" height="96" viewBox="0 0 96 96" fill="none" xmlns="http://www.w3.org/2000/svg">
    <g clip-path="url(#m02jkqqima)">
        <circle opacity=".64" cx="37" cy="41" r="29" fill="#EBEBEB"/>
        <g filter="url(#memrystjyb)">
            <circle cx="48" cy="48" r="20" fill="#9BB7F0"/>
        </g>
        <circle cx="15" cy="39" r="4" fill="#F33D5E"/>
        <circle cx="68" cy="70" r="2" fill="#F33D5E"/>
        <circle cx="85.5" cy="42.5" r="1.5" fill="#F33D5E"/>
        <path d="M72.75 34.5c0 12.012-11.081 21.75-24.75 21.75S23.25 46.512 23.25 34.5" stroke="#132853" stroke-linecap="round" stroke-linejoin="round"/>
        <path d="M63 52c0 8.284-6.716 15-15 15-8.284 0-15-6.716-15-15" stroke="#132853" stroke-linecap="round" stroke-linejoin="round"/>
        <path d="M55.456 83.025H34.574l9.202-8.45c-.472-.822-1.416-5-1.416-15.14 0-4.97-3.684-9.75-8.344-13.73C26 38.854 19.354 29.75 19.354 19.207v-1.322L17 12h38.456" stroke="#132853" stroke-width="2" stroke-linecap="round" stroke-linejoin="round"/>
        <path d="M40.544 83.025h20.882l-9.202-8.45c.472-.822 1.416-5 1.416-15.14 0-4.97 3.684-9.75 8.344-13.73C70 38.854 76.646 29.75 76.646 19.207v-1.322L79 12H40.544" stroke="#132853" stroke-width="2" stroke-linecap="round" stroke-linejoin="round"/>
        <path d="M19.354 17.494h57.291M43.684 74.75h8.633M40.544 77.924h14.912" stroke="#132853" stroke-linecap="round" stroke-linejoin="round"/>
        <path d="M36.5 23.75a1 1 0 1 0 0 2v-2zm6.25 1 .753.659a1 1 0 0 0-.753-1.659v1zm-4.875 5.571-.753-.658a1 1 0 0 0 .753 1.658v-1zm5.216 4.198-.977-.212.977.212zM36.5 25.75h6.25v-2H36.5v2zm5.497-1.659-4.875 5.572 1.506 1.317 4.875-5.572-1.506-1.317zm-4.122 7.23h1.83v-2h-1.83v2zm4.239 2.986-.089.41 1.955.423.089-.41-1.955-.423zm-1.989 1.943h-2.84v2h2.84v-2zm-2.84 0a.689.689 0 0 1-.677-.816l-1.966-.368a2.689 2.689 0 0 0 2.643 3.184v-2zm4.74-1.533a1.944 1.944 0 0 1-1.9 1.533v2a3.944 3.944 0 0 0 3.855-3.11l-1.955-.423zm-2.32-3.396c1.572 0 2.741 1.45 2.409 2.986l1.955.423a4.464 4.464 0 0 0-4.364-5.409v2z" fill="#132853"/>
        <path d="M47 33.833v-6.166a3.417 3.417 0 0 1 3.417-3.417h.84A3.742 3.742 0 0 1 55 27.992v5.516a3.742 3.742 0 0 1-3.742 3.742h-.84A3.418 3.418 0 0 1 47 33.833zM59 30.75h5M61.5 28.25v5" stroke="#132853" stroke-width="2" stroke-linecap="round" stroke-linejoin="round"/>
    </g>
    <defs>
        <clipPath id="m02jkqqima">
            <path fill="#fff" d="M0 0h96v96H0z"/>
        </clipPath>
        <filter id="memrystjyb" x="-4" y="-4" width="104" height="104" filterUnits="userSpaceOnUse" color-interpolation-filters="sRGB">
            <feFlood flood-opacity="0" result="BackgroundImageFix"/>
            <feBlend in="SourceGraphic" in2="BackgroundImageFix" result="shape"/>
            <feGaussianBlur stdDeviation="16" result="effect1_foregroundBlur_733_888"/>
        </filter>
    </defs>
</svg>
